<svg width="35" height="35" viewBox="0 0 35 35" fill="none" xmlns="http://www.w3.org/2000/svg">
<path d="M31.5858 34.4142C32.3668 35.1953 33.6332 35.1953 34.4142 34.4142C35.1953 33.6332 35.1953 32.3668 34.4142 31.5858L31.5858 34.4142ZM27.3529 15.6765C27.3529 22.1252 22.1252 27.3529 15.6765 27.3529V31.3529C24.3343 31.3529 31.3529 24.3343 31.3529 15.6765H27.3529ZM15.6765 27.3529C9.22773 27.3529 4 22.1252 4 15.6765H0C0 24.3343 7.01859 31.3529 15.6765 31.3529V27.3529ZM4 15.6765C4 9.22773 9.22773 4 15.6765 4V0C7.01859 0 0 7.01859 0 15.6765H4ZM15.6765 4C22.1252 4 27.3529 9.22773 27.3529 15.6765H31.3529C31.3529 7.01859 24.3343 0 15.6765 0V4ZM34.4142 31.5858L26.778 23.9496L23.9496 26.778L31.5858 34.4142L34.4142 31.5858Z" fill="white"/>
</svg>
